<svg id="Layer_1" data-name="Layer 1" xmlns="http://www.w3.org/2000/svg" viewBox="0 0 350 350"><defs><style>.cls-1{opacity:0.49;}.cls-2{fill:#e6e7e8;}</style></defs><title>Artboard 1</title><g class="cls-1"><path class="cls-2" d="M257.4,217.67V105.3c0-.62,0-1.24,0-1.86,0-1,.48-1.4,1.46-1.38,1.75,0,3.49,0,5.23,0h25.65c2.87,0,2.88,0,2.88,2.81V278.34c0,2.8,0,2.8-2.72,2.8-9.68,0-19.35,0-29,0a2.85,2.85,0,0,1-2.74-1.44q-11.58-17.62-23.25-35.17c-.84-1.27-1.69-2.53-2.5-3.81-.67-1.07-1.15-1.11-1.84.06A125.69,125.69,0,0,1,220.9,255c-11.47,14.51-25.63,25.31-43.27,31.24A83.21,83.21,0,0,1,138,289.79c-8.6-1.31-17.16-3-25.65-4.93C100.65,282.23,91,275.94,83.11,267c-10.69-12.16-17.54-26.28-21.63-41.85-3.87-14.68-4.62-29.66-3.82-44.69a154.46,154.46,0,0,1,13.69-55.86,131.36,131.36,0,0,1,16-27.09c10.8-13.8,23.68-25.09,40-31.93a78.3,78.3,0,0,1,35.09-6.16c2.46.14,4.89.68,7.34,1,1,.12,1,1.26,2,1.57,3.81,1.21,7.6,2.18,11.65,1.76,5-.51,9.74.69,14.43,2.09,12.35,3.68,22.33,10.84,30.41,20.83A123.39,123.39,0,0,1,236,97.66c.51.8.32,1.25-.3,1.86-9.3,9.23-18.66,18.41-27.81,27.8-2.12,2.18-4.16,2.93-7,2.14-.7-.19-1.72-.94-2.15-.21s.6,1.45,1,2.13q11.78,17.79,23.58,35.56,13.19,19.89,26.35,39.78L257,217.8ZM147,179.12h0V140.31q0-7.35,0-14.68c0-.49.24-1.16-.23-1.43-.63-.36-1,.4-1.37.71a49.09,49.09,0,0,0-8.17,8,77.32,77.32,0,0,0-15.76,33.75,103.17,103.17,0,0,0-1.79,24.13,77.56,77.56,0,0,0,3.49,21.88,46.76,46.76,0,0,0,12.67,20.19c2.74,2.55,5.44,3.55,9.13,2.2,1.71-.63,2.08-1.32,2.07-2.95Q146.92,205.62,147,179.12Zm35.32-14-.31.09v39a2,2,0,0,1,2.58-1.23c5.74,1.09,11.47,2.23,17.24,3.15a15,15,0,0,1,7.77,3.26c1.07.93,2.27,1.72,3.41,2.57l.2-.22Z"/></g></svg>