<svg id="Layer_1" data-name="Layer 1" xmlns="http://www.w3.org/2000/svg" viewBox="0 0 1200 675"><defs><style>.cls-1{opacity:0.5;}.cls-2{fill:#e6e7e8;}</style></defs><title>long</title><g class="cls-1"><path class="cls-2" d="M777.51,430.4c1-1.87.61-3.46.61-5q0-119.19,0-238.4c0-1.34.05-2.68,0-4-.08-2.29.91-3.28,3.26-3.27q34.88.06,69.73,0c2.35,0,3.36.93,3.21,3.25-.07,1.09,0,2.19,0,3.28V560.48a16,16,0,0,0,0,2.19c.46,3.51-1,4.61-4.53,4.58-21.54-.13-43.08-.09-64.62,0a5.59,5.59,0,0,1-5.31-2.89Q752.51,522.73,725,481.26c-.2-.3-.36-.63-.56-.94-2.22-3.26-2.54-3.29-4.54,0-9.06,15-19.05,29.39-30.88,42.42-19,20.89-40.93,37.65-66.87,49-18.75,8.25-38.28,13.89-58.64,15.33-17.06,1.2-34.22,1.35-51.21-2.53-14.33-3.26-28.94-5.26-43.34-8.2-20.55-4.18-39-13-54.68-26.95-25.22-22.45-41.93-50.54-53.29-82a257.63,257.63,0,0,1-14.47-70.84c-2.24-34-.49-67.79,7-101.19,8.82-39.46,23.65-76.38,45.83-110.24a247.31,247.31,0,0,1,48.42-54.23c19.94-16.7,42.14-29.19,67.12-36.57,24.14-7.13,48.63-9.48,73.56-4.84.84.16,1.93-.21,1.9,1.48,0,1.26,1.57,1.3,2.51,1.64,8.24,3,16.6,5.05,25.51,4.07,10.51-1.16,20.6,1.41,30.5,4.31,26.88,7.88,48.65,23.37,66.23,45A255.2,255.2,0,0,1,731.66,170c1.15,1.81,1,2.83-.55,4.32-20.23,20.05-40.48,40.07-60.48,60.34-4,4-7.71,6.46-13.36,4.49a22.37,22.37,0,0,0-3.57-.73c-.89-.15-2-1-2.62.15-.48.83.37,1.58.83,2.26q5.63,8.53,11.29,17,25,37.69,50,75.39,26.19,39.54,52.35,79.1C769.51,418.29,773.43,424.23,777.51,430.4ZM539.19,346.65V286q0-27.56,0-55.13c0-1.14.64-2.75-.64-3.33s-2,1-3,1.7a106.51,106.51,0,0,0-17.42,17.06c-17.55,21.43-28.53,46-34.17,73-3.63,17.33-4.45,34.87-3.92,52.58.49,16.17,2.58,31.95,7.6,47.33,5.54,17,14.54,31.7,27.78,43.88,5.76,5.3,11.48,7.13,19.15,4.43,3.84-1.34,4.69-2.94,4.68-6.61C539.14,422.83,539.19,384.74,539.19,346.65ZM615,315.37v85.51c1.41-3.2,3.23-3.12,5.3-2.73,12.54,2.36,25,5.1,37.68,6.79,7.3,1,13,4.25,18.48,8.56,1.8,1.41,3.67,2.71,5.51,4.06l.46-.41Z"/></g></svg>