<svg id="Layer_1" data-name="Layer 1" xmlns="http://www.w3.org/2000/svg" viewBox="0 0 1200 105"><defs><style>.cls-1{opacity:0.5;}.cls-2{fill:#e6e7e8;}</style></defs><title>105</title><g class="cls-1"><path class="cls-2" d="M359.38,77.91c-3.48,1.74-10.43,3.47-19.33,3.47-20.63,0-36.16-13-36.16-37,0-22.91,15.53-38.44,38.22-38.44,9.12,0,14.88,2,17.38,3.26l-2.28,7.71a34.4,34.4,0,0,0-14.77-3.05c-17.16,0-28.56,11-28.56,30.19C313.88,62,324.2,73.46,342,73.46c5.75,0,11.61-1.2,15.41-3Z"/><path class="cls-2" d="M399.23,80.3l-.76-6.63h-.33a19.55,19.55,0,0,1-16.07,7.82C371.43,81.49,366,74,366,66.4c0-12.71,11.3-19.65,31.6-19.55V45.77c0-4.35-1.19-12.16-11.94-12.16A26.15,26.15,0,0,0,372,37.52l-2.18-6.3a32.69,32.69,0,0,1,17.27-4.67c16.07,0,20,11,20,21.5V67.7a73.23,73.23,0,0,0,.87,12.6Zm-1.41-26.82c-10.43-.22-22.26,1.63-22.26,11.83,0,6.19,4.12,9.12,9,9.12a13.08,13.08,0,0,0,12.71-8.79,10.14,10.14,0,0,0,.54-3Z"/><path class="cls-2" d="M422.47,44.9c0-6.73-.22-12.16-.44-17.16h8.58l.44,9h.21c3.91-6.41,10.1-10.21,18.68-10.21,12.7,0,22.26,10.75,22.26,26.71,0,18.89-11.51,28.23-23.89,28.23-6.95,0-13-3-16.18-8.25h-.22V101.8h-9.44Zm9.44,14a21.33,21.33,0,0,0,.44,3.91A14.74,14.74,0,0,0,446.68,74c10.1,0,16-8.25,16-20.31,0-10.53-5.53-19.54-15.63-19.54-6.52,0-12.6,4.67-14.44,11.84a15.24,15.24,0,0,0-.66,3.9Z"/><path class="cls-2" d="M494.89,13c.11,3.25-2.28,5.86-6.08,5.86A5.68,5.68,0,0,1,483.06,13a5.82,5.82,0,0,1,6-6A5.67,5.67,0,0,1,494.89,13ZM484.25,80.3V27.74h9.56V80.3Z"/><path class="cls-2" d="M521.17,12.65V27.74h13.68V35H521.17V63.36c0,6.51,1.85,10.2,7.17,10.2a21,21,0,0,0,5.53-.65l.44,7.17a23.43,23.43,0,0,1-8.47,1.3c-4.45,0-8-1.41-10.32-4-2.71-2.83-3.69-7.5-3.69-13.69V35h-8.14V27.74h8.14V15.15Z"/><path class="cls-2" d="M574.7,80.3l-.76-6.63h-.33a19.55,19.55,0,0,1-16.07,7.82c-10.64,0-16.07-7.49-16.07-15.09,0-12.71,11.3-19.65,31.6-19.55V45.77c0-4.35-1.19-12.16-11.94-12.16a26.15,26.15,0,0,0-13.68,3.91l-2.18-6.3a32.69,32.69,0,0,1,17.27-4.67c16.07,0,20,11,20,21.5V67.7a73.23,73.23,0,0,0,.87,12.6Zm-1.41-26.82C562.86,53.26,551,55.11,551,65.31c0,6.19,4.13,9.12,9,9.12a13.09,13.09,0,0,0,12.71-8.79,10.14,10.14,0,0,0,.54-3Z"/><path class="cls-2" d="M597.94,3.2h9.55V80.3h-9.55Z"/><path class="cls-2" d="M646.91,80.3V7.11h10.31l23.46,37a206.52,206.52,0,0,1,13.13,23.78l.22-.11C693.16,58,693,49.13,693,37.73V7.11h8.9V80.3H692.3L669.06,43.16a231.83,231.83,0,0,1-13.68-24.43l-.33.11c.54,9.23.76,18,.76,30.19V80.3Z"/><path class="cls-2" d="M723.35,55.76c.22,12.92,8.47,18.24,18,18.24a34.57,34.57,0,0,0,14.55-2.72l1.62,6.85c-3.36,1.52-9.12,3.25-17.48,3.25-16.18,0-25.84-10.64-25.84-26.49s9.34-28.34,24.65-28.34c17.15,0,21.71,15.09,21.71,24.76a36.08,36.08,0,0,1-.32,4.45Zm28-6.84c.11-6.08-2.49-15.53-13.24-15.53-9.67,0-13.9,8.9-14.66,15.53Z"/><path class="cls-2" d="M772.43,44.9c0-6.73-.22-12.16-.43-17.16h8.57l.44,9h.22c3.91-6.41,10.09-10.21,18.67-10.21,12.71,0,22.26,10.75,22.26,26.71,0,18.89-11.51,28.23-23.89,28.23-6.95,0-13-3-16.18-8.25h-.21V101.8h-9.45Zm9.45,14a21.36,21.36,0,0,0,.43,3.91A14.74,14.74,0,0,0,796.64,74c10.1,0,16-8.25,16-20.31,0-10.53-5.54-19.54-15.64-19.54-6.51,0-12.6,4.67-14.44,11.84a15.23,15.23,0,0,0-.65,3.9Z"/><path class="cls-2" d="M863.31,80.3l-.76-6.63h-.32a19.57,19.57,0,0,1-16.07,7.82c-10.64,0-16.07-7.49-16.07-15.09,0-12.71,11.29-19.65,31.6-19.55V45.77c0-4.35-1.2-12.16-12-12.16a26.18,26.18,0,0,0-13.68,3.91l-2.17-6.3a32.63,32.63,0,0,1,17.26-4.67c16.07,0,20,11,20,21.5V67.7A74.25,74.25,0,0,0,872,80.3ZM861.9,53.48c-10.42-.22-22.26,1.63-22.26,11.83,0,6.19,4.13,9.12,9,9.12a13.07,13.07,0,0,0,12.7-8.79,9.84,9.84,0,0,0,.54-3Z"/><path class="cls-2" d="M886.55,3.2h9.56V80.3h-9.56Z"/></g></svg>